<?xml version="1.0" encoding="utf-8"?>
<!-- Generator: Adobe Illustrator 16.0.0, SVG Export Plug-In . SVG Version: 6.00 Build 0)  -->
<!DOCTYPE svg PUBLIC "-//W3C//DTD SVG 1.1//EN" "http://www.w3.org/Graphics/SVG/1.1/DTD/svg11.dtd">
<svg version="1.1" id="图层_1" xmlns="http://www.w3.org/2000/svg" xmlns:xlink="http://www.w3.org/1999/xlink" x="0px" y="0px"
	 width="334.871px" height="404.455px" viewBox="0 0 334.871 404.455" enable-background="new 0 0 334.871 404.455"
	 xml:space="preserve">
<g>
	<polygon fill="#139EF6" points="194.392,388.814 195.191,389.674 194.352,388.814 	"/>
	<path fill="#139EF6" d="M261.421,383.444c-14.739,7.021-30.399,12.4-46.76,15.96l-18.979-20.05l-4.92,4.9l-0.33,0.33l-0.101,0.1
		l-10.8,10.8c-4.4,4.4-11.55,4.4-15.97,0c-4.42-4.409-4.42-11.569,0-15.979l11.03-11.03c-1.171-1.21-2.57-2.57-4.19-4.03
		c0.24-0.18,0.45-0.39,0.64-0.56l3.94,4.21l5.13-5.13c0.31-0.311,0.65-0.561,0.98-0.83c18.279-28.15,45.43-19.39,48.35-18.33
		c0.08,0.021,0.17,0.05,0.25,0.09C247.121,350.745,260.291,366.745,261.421,383.444z"/>
	<path fill="#139EF6" d="M170.406,364.442c-0.019,0.019-0.019,0.019-0.019,0.037l0.019,0.021l-10.935,10.934
		c-3.229,3.209-4.997,7.496-4.997,12.069c0,4.536,1.768,8.84,4.997,12.049c2.786,2.769,6.303,4.459,10.128,4.882
		c-0.616,0.021-1.23,0.021-1.845,0.021c-28.309,0-55.368-5.383-80.217-15.144c0.038-11.263,4.19-22.735,13.375-32.442
		c12.435-13.086,27.252-14.143,38.609-12.221c10.225,2.901,22.429,12.106,30.404,19.351l0.037,0.04
		C170.099,364.173,170.252,364.328,170.406,364.442z"/>
	<path fill="#139EF6" d="M206.268,401.071c-10.493,1.865-21.235,2.98-32.19,3.286c3.613-0.518,6.918-2.19,9.551-4.805l10.724-10.742
		l0.845,0.865L206.268,401.071z"/>
</g>
<path fill="#FF7482" d="M134.554,341.763c0,0,3.425,18.925,36.002,19.762c32.586,0.849,41.902-19.043,41.902-19.043L134.554,341.763
	z"/>
<path fill="#FF7482" d="M0,227.785c0-27.494,22.293-49.788,49.788-49.788c27.505,0,49.793,22.294,49.793,49.788
	c0,27.5-22.289,49.795-49.793,49.795C22.293,277.58,0,255.285,0,227.785z"/>
<path fill="#FF7482" d="M235.282,210.957c0-27.5,22.289-49.799,49.801-49.799c27.494,0,49.788,22.3,49.788,49.799
	c0,27.489-22.294,49.782-49.788,49.782C257.571,260.739,235.282,238.446,235.282,210.957z"/>
<path fill="#FFFFFF" d="M47.063,183.988c-0.927,3.115-1.735,6.251-2.442,9.457C45.316,190.24,46.136,187.103,47.063,183.988z"/>
<path fill="#FFFFFF" d="M56.554,160.903c-3.872,7.309-7.065,15.024-9.491,23.085C49.472,175.928,52.671,168.212,56.554,160.903z"/>
<path fill="#FFFFFF" d="M67.82,143.307c-1.91,2.516-3.731,5.104-5.466,7.761c1.724-2.657,3.544-5.246,5.455-7.761H67.82z"/>
<path fill="#FFFFFF" d="M298.745,221.126c0,70.929-57.521,128.551-128.545,128.551c-66.848,0-121.825-51.06-128.043-116.223v-0.006
	c-0.022-0.26-0.057-0.525-0.057-0.802c0.006,0.276,0.045,0.542,0.073,0.802c13.549-23.289,38.76-38.969,67.678-38.969
	c30.327,0,56.65,17.275,69.617,42.531c7.333-35.629,38.862-62.416,76.655-62.416c13.453,0,26.127,3.391,37.177,9.377
	C296.847,195.752,298.745,208.21,298.745,221.126z"/>
<path fill="#ED8598" d="M105.206,246.557c0-6.619,5.37-11.978,11.983-11.978s11.978,5.358,11.978,11.978
	c0,6.613-5.364,11.979-11.978,11.979S105.206,253.17,105.206,246.557z"/>
<path fill="#ED8598" d="M229.907,231.25c0-6.614,5.364-11.968,11.978-11.968c6.619,0,11.978,5.354,11.978,11.968
	c0,6.612-5.358,11.978-11.978,11.978C235.271,243.228,229.907,237.863,229.907,231.25z"/>
<path fill="#1D9FD9" d="M196.529,54.177c1.764,3.109,3.579,6.167,5.467,9.203c-1.985-3.149-3.885-6.359-5.721-9.616
	c0.051,0.097,0.113,0.187,0.181,0.295C196.479,54.087,196.507,54.137,196.529,54.177z"/>
<path fill="#1D9FD9" d="M201.996,63.379c1.888,3.029,3.821,6.014,5.833,8.953C205.817,69.399,203.865,66.409,201.996,63.379z"/>
<path fill="#1D9FD9" d="M207.829,72.333c1.995,2.935,4.058,5.84,6.189,8.694C211.887,78.172,209.824,75.278,207.829,72.333z"/>
<path fill="#1D9FD9" d="M214.019,81.027c2.125,2.832,4.302,5.658,6.541,8.405C218.304,86.685,216.126,83.881,214.019,81.027z"/>
<path fill="#1D9FD9" d="M220.56,89.432c2.197,2.713,4.447,5.393,6.749,8.021C224.996,94.825,222.74,92.168,220.56,89.432z"/>
<path fill="#1D9FD9" d="M275.813,147.733c0.428,0.622,0.852,1.238,1.281,1.871c-0.43-0.633-0.854-1.249-1.293-1.871
	c-0.367-0.531-0.729-1.051-1.109-1.572c-0.418-0.565-0.817-1.141-1.248-1.696c-0.322-0.452-0.662-0.904-1.013-1.357
	c-0.464-0.632-0.944-1.232-1.425-1.853c0.48,0.621,0.961,1.221,1.438,1.853c0.35,0.453,0.678,0.905,1.018,1.357
	c0.43,0.555,0.829,1.131,1.242,1.696C275.072,146.682,275.445,147.202,275.813,147.733z"/>
<path fill="#1D9FD9" d="M280.476,154.94c0.143,0.215,0.266,0.441,0.39,0.667c-0.135-0.226-0.265-0.447-0.401-0.667
	c-0.13-0.198-0.236-0.408-0.349-0.593C280.228,154.532,280.352,154.742,280.476,154.94z"/>
<path fill="#1D9FD9" d="M283.591,160.428c0.458,0.849,0.91,1.713,1.323,2.572c-0.425-0.859-0.877-1.724-1.329-2.572
	c-0.277-0.52-0.56-1.04-0.843-1.554C283.025,159.389,283.308,159.909,283.591,160.428z"/>
<path fill="#1D9FD9" d="M290.317,175.193c0.169,0.441,0.334,0.871,0.497,1.329c-0.163-0.458-0.34-0.888-0.509-1.329
	c-0.672-1.774-1.38-3.504-2.138-5.246c-0.226-0.514-0.45-1.045-0.688-1.565c-0.81-1.81-1.673-3.601-2.565-5.382
	c0.904,1.781,1.773,3.572,2.576,5.382c0.244,0.52,0.464,1.051,0.691,1.565C288.938,171.689,289.64,173.418,290.317,175.193z"/>
<path fill="#1D9FD9" d="M293.301,183.972c-0.214-0.679-0.418-1.379-0.632-2.057c-0.209-0.678-0.453-1.351-0.678-2.03
	c0-0.017-0.014-0.056-0.024-0.079c-0.214-0.639-0.439-1.295-0.666-1.934c-0.146-0.457-0.329-0.909-0.486-1.351
	c0.169,0.441,0.34,0.894,0.497,1.351c0.228,0.639,0.458,1.295,0.666,1.934c0.014,0.022,0.03,0.062,0.03,0.079
	c0.226,0.679,0.452,1.352,0.678,2.03C292.894,182.592,293.099,183.293,293.301,183.972z"/>
<path fill="#1D9FD9" d="M112.108,31.566c1.351,1.583,3.126,3.2,4.708,3.697c1.572,0.497,0.684,1.271,0.684,1.271l-5.884,0.707"/>
<path fill="#139EF6" d="M292.651,181.902c-0.196-0.655-0.452-1.362-0.649-2.018c0,0,0-0.045-0.058-0.101
	c-0.203-0.6-0.4-1.261-0.655-1.912c-0.146-0.457-0.3-0.909-0.503-1.362c-0.152-0.452-0.3-0.854-0.503-1.306
	c-0.655-1.769-1.362-3.533-2.119-5.246c-0.199-0.503-0.452-1.057-0.707-1.56c-0.804-1.815-1.661-3.629-2.565-5.393
	c-0.402-0.859-0.854-1.718-1.307-2.572c-0.261-0.503-0.56-1.057-0.854-1.56c-0.26-0.509-0.56-1.013-0.865-1.51
	c-0.299-0.604-0.655-1.21-1.001-1.769c-0.157-0.204-0.259-0.452-0.407-0.65c-0.101-0.204-0.247-0.406-0.354-0.61
	c-0.452-0.752-0.961-1.561-1.458-2.318c-0.505-0.802-1.014-1.605-1.567-2.414c-0.351-0.537-0.745-1.103-1.107-1.65
	c-0.102-0.131-0.204-0.288-0.312-0.441c-0.326-0.463-0.644-0.904-0.949-1.34c-0.452-0.548-0.854-1.152-1.26-1.712
	c-0.351-0.453-0.656-0.905-1.002-1.357c-0.062-0.068-0.102-0.141-0.157-0.208c-5.777-7.196-14.9-15.912-21.067-21.509
	c-0.452-0.406-0.91-0.791-1.356-1.209c-0.231-0.209-0.47-0.436-0.706-0.65c-0.289-0.249-0.584-0.514-0.843-0.746l0.006-0.011
	c-0.798-0.729-1.588-1.441-2.386-2.176c-1.306-1.204-2.572-2.414-3.877-3.674c-1.262-1.21-2.522-2.419-3.782-3.731
	c-1.261-1.26-2.47-2.521-3.68-3.776c-1.262-1.311-2.465-2.572-3.624-3.877c-1.158-1.266-2.316-2.521-3.481-3.838
	c-0.045-0.097-0.102-0.147-0.197-0.249c-2.323-2.617-4.54-5.291-6.757-8.01c-2.214-2.776-4.437-5.545-6.544-8.417
	c-0.859-1.159-1.668-2.267-2.476-3.426c-0.204-0.305-0.452-0.604-0.656-0.909c-0.599-0.86-1.254-1.714-1.866-2.617
	c-0.396-0.605-0.796-1.165-1.152-1.714c-28.772-42.077-63.496-64.552-83.998-72.11c-0.051,0-0.051,0-0.108,0
	c-1.661-0.554-5.844-0.452-3.775,3.375c0.655,1.21,1.407,2.521,2.114,3.833c1.808,3.363,3.679,7.065,5.047,10.587l0.006-0.034
	c0.034,0.097,0.073,0.209,0.112,0.316c0.051,0.125,0.091,0.238,0.142,0.362c1.199,3.126,3.934,9.366,0.045,14.109
	c-0.125,0.164-0.249,0.317-0.374,0.458c-0.034,0.039-0.073,0.073-0.107,0.108c-0.594,0.638-1.159,1.068-1.498,1.254
	c-1.261,0.701-6.145,3.12-11.283-0.905c-0.249-0.158-0.453-0.355-0.655-0.508c0-0.051-0.057-0.051-0.057-0.051
	c-0.198-0.204-0.344-0.351-0.498-0.555c-0.101-0.096-0.254-0.299-0.406-0.503c-0.605-0.757-1.51-1.763-2.415-1.458
	c-0.152,0.045-0.254,0.147-0.4,0.249c-0.108,0.051-0.204,0.153-0.306,0.249c-2.769,2.419-4.685,8.614-4.635,14.821v0.499
	c0.045,1.062,0.102,2.17,0.147,3.232v3.223c0,25.77-7.575,49.766-20.683,69.854c-3.075,4.438-6.63,8.79-9.004,11.531
	c-0.594,0.656-1.187,1.323-1.764,1.99c-0.068,0.079-0.164,0.181-0.226,0.249c0,0.006,0,0.006-0.006,0.012
	c-1.848,2.159-3.623,4.375-5.353,6.664l-0.102,0.102c-1.91,2.516-3.731,5.088-5.438,7.761c-0.707,1.051-1.357,2.165-2.069,3.222
	c-1.312,2.166-2.566,4.387-3.731,6.597c-3.877,7.309-7.099,15.019-9.519,23.08c-0.909,3.126-1.712,6.251-2.419,9.474
	c-0.407,1.916-0.802,3.877-1.107,5.799c-0.51,2.668-0.91,5.393-1.216,8.112c-0.299,2.668-0.503,5.443-0.599,8.213
	c-0.102,1.866-0.153,3.674-0.153,5.54c0,0.559,0.051,1.114,0.051,1.662v1.662c0.051,1.062,0.051,2.12,0.152,3.176
	c0,0.357,0,0.656,0.045,1.007c0,0.655,0.052,1.362,0.102,2.023c0.057,0.65,0.102,1.357,0.204,2.014c0,0.305,0.051,0.553,0.051,0.802
	c13.555-23.277,38.749-38.947,67.673-38.947c30.337,0,56.689,17.235,69.639,42.525c7.311-35.628,38.852-62.433,76.644-62.433
	c13.453,0,26.149,3.38,37.188,9.372C293.104,183.31,292.905,182.609,292.651,181.902z M74.195,135.507
	c-0.022,0.022-0.045,0.05-0.067,0.073c-0.011,0.017-0.028,0.034-0.04,0.05c-0.011,0.011-0.017,0.017-0.028,0.028
	C74.105,135.608,74.15,135.557,74.195,135.507z"/>
<g>
	<path fill="#FF7482" d="M313.764,197.125h-13.063c0-73.472-59.783-133.265-133.26-133.265
		c-73.495,0-133.271,59.793-133.271,133.265H21.101c0-80.679,65.644-146.334,146.34-146.334
		C248.119,50.791,313.764,116.446,313.764,197.125z"/>
</g>
<path fill="#ED8598" d="M186.032,266.211c-0.312,0-0.604,0-0.904,0.006c-0.458,0-0.91,0.012-1.362,0.028
	c-0.402,0.011-0.813,0.028-1.221,0.051c-5.813,0.599-13.539,2.814-17.631,5.624l10.073,13.771l12.187,16.658
	c0,0,3.284-8.156,6.717-18.181c1.756-5.165,3.565-10.835,4.99-16.125C195.388,266.906,190.933,266.246,186.032,266.211z"/>
<path fill="#FF7482" d="M186.207,354.928l-13.6,3.521c0,0,6.529,21.464,6.721,20.203c0.006,0.022,0,0.039,0.006,0.057
	c2.899-3.968,11.295-7.201,11.295-7.201L186.207,354.928z"/>
<path fill="#FF7482" d="M164.671,354.928l13.601,3.521c0,0-6.523,21.464-6.715,20.203c-0.006,0.022-0.006,0.039-0.011,0.057
	c-2.901-3.968-11.295-7.201-11.295-7.201L164.671,354.928z"/>
</svg>
